<?xml version="1.0" encoding="utf-8"?>
<!-- Generator: Adobe Illustrator 25.4.1, SVG Export Plug-In . SVG Version: 6.00 Build 0)  -->
<svg version="1.1" xmlns="http://www.w3.org/2000/svg" xmlns:xlink="http://www.w3.org/1999/xlink" x="0px" y="0px"
	 viewBox="0 0 500 500" style="enable-background:new 0 0 500 500;" xml:space="preserve">
<style type="text/css">
	.st0{fill:none;}
	.st1{fill:#90CAF9;}
	.st2{fill:#37474F;}
</style>
<g id="レイヤー_2">
	<rect x="162.4" y="283.6" class="st0" width="93.9" height="93.9"/>
	<path class="st1" d="M182,317.9c0,9.9,8.1,11.7,15.1,9.1c7-2.6,9.4-14.1,0-18.3C187.8,304.6,182,309.8,182,317.9z"/>
	<path class="st1" d="M192.5,367.7c-1.6-1.4-5.1-5.7-2.4-10.7c1-1.8,3.1-2.8,5-3.6c2-0.7,3.9-1.6,5.5-2.9c3-2.6,3.8-6.8,5.8-10.2
		c2.3-3.9,6.6-6.9,11.1-6.6c5.2,0.2,9.5,4.5,11.5,9.3s2,10.2,2.1,15.4c0,2.9-0.1,6.1-2.2,8.1c-2,1.8-4.9,1.8-7.5,1.7l-28.3-0.9"/>
	<path class="st1" d="M222.8,283.8c6.5-1,10.7,1.6,14.3,10.2c3.4,8-3.9,17.4-9.9,16.1c-9-1.9-3.2-7.1-5.5-10.9
		c-2.8-4.6-6-2.3-7.5-7.8C212.7,285.9,217.1,284.7,222.8,283.8z"/>
</g>
<g id="レイヤー_1">
	<path class="st2" d="M246.6,289.9h-74.4l13.4,79.9c0.6,3.4,3,6.2,6.4,7.1l0.3,0.1c0.2,0.1,0.4,0.1,0.7,0.2c0.5,0.1,1,0.2,1.5,0.2
		v0.1h0.4H228c0.6,0,1.2-0.1,1.8-0.2c4-0.6,7-3.8,7.5-7.8l6.5-55.1l0.3-2.2l0,0l2.5-21.8V289.9z M232.6,340.9H225l0.8-23.2h8.8
		L232.6,340.9z M235.3,317.7h7.3l-2.7,23.2h-6.6L235.3,317.7z M213.5,366.6l-0.5-20.1h11l-0.7,20.1H213.5z M201.6,346.5h10.7
		l0.5,20.1h-9.6L201.6,346.5z M202.4,366.6h-9c-0.9-5.4-2-12.5-3.2-20.1h10.5L202.4,366.6z M201.2,340.9l-1.8-23.2h12.2l0.5,23.2
		H201.2z M212.9,340.9l-0.6-23.2h12.6l-0.8,23.2H212.9z M212.2,312.2l-0.5-21.5h14.1l-0.7,21.5H212.2z M211.5,312.2h-12.6l-1.7-21.5
		H211L211.5,312.2z M198.2,312.2h-13.3l-1.3-8.3c-1.4-8.7-1.9-12-2.2-13.2h15.1L198.2,312.2z M198.6,317.7l1.8,23.2h-11
		c-0.4-2.4-0.7-4.7-1.1-7.1c-0.9-5.5-1.7-11-2.5-16.1H198.6z M188.7,340.9h-7.2l-3.9-23.2h7.4C186.1,324.9,187.4,332.8,188.7,340.9
		L188.7,340.9z M189.6,346.5c1.1,7,2.2,13.8,3.1,20.1h-6.9l-3.4-20.1H189.6z M224.1,366.6l0.7-20.1h7.3l-1.8,20.1H224.1z
		 M225.9,312.2l0.7-21.5h10.3l-1.8,21.5H225.9z M180.7,290.7c0.3,1.5,1.6,10,3.5,21.5h-7.5l-3.6-21.5H180.7z M236.8,366.6H231
		l1.7-20.1h6.4L236.8,366.6z M243.2,312.2h-7.5l1.8-21.5h8.2L243.2,312.2z"/>
</g>
</svg>
