<?xml version="1.0" encoding="utf-8"?>
<!-- Generator: Adobe Illustrator 25.4.1, SVG Export Plug-In . SVG Version: 6.00 Build 0)  -->
<svg version="1.1" id="レイヤー_1" xmlns="http://www.w3.org/2000/svg" xmlns:xlink="http://www.w3.org/1999/xlink" x="0px"
	 y="0px" viewBox="0 0 500 500" style="enable-background:new 0 0 500 500;" xml:space="preserve">
<style type="text/css">
	.st0{fill:none;}
	.st1{fill:#455A64;}
	.st2{fill:#E0E0E0;}
	.st3{fill:#EBEBEB;}
	.st4{fill:#FAFAFA;}
	.st5{fill:#263238;}
	.st6{fill:#90CAF9;}
	.st7{opacity:0.3;}
</style>
<rect x="79.3" y="48.8" class="st0" width="358.7" height="358.7"/>
<g id="freepik--Checklist--inject-20">
	<rect x="137.7" y="75.2" class="st1" width="242.5" height="332.3"/>
	<polygon class="st2" points="370.6,387.7 325.7,387.7 157.9,387.7 157.9,88.6 370.6,88.6 370.6,350.5 	"/>
	<polygon class="st3" points="367.3,382.2 322.8,382.2 156.5,382.2 156.5,84.7 367.3,84.7 367.3,345.2 	"/>
	<polygon class="st4" points="344.6,359 320.4,378.8 152.6,378.8 152.6,85.4 365.3,85.4 365.3,342.3 	"/>
	<path class="st5" d="M344.6,359c0,0,0.4-0.4,1.3-1.1l3.9-3.2l15.4-12.5v0.1c0-42.2-0.1-136-0.1-256.9l0.2,0.2H154.4h-1.9l0.3-0.3
		c0,110.3,0,212.1-0.1,293.4l-0.2-0.2l167.8,0.1h-0.1l18.2-14.8l4.6-3.7C344.1,359.4,344.7,359,344.6,359l-1.5,1.2l-4.6,3.8
		l-18.2,14.9l0,0l0,0L152.6,379h-0.2v-0.2c0-81.3,0-183.1-0.1-293.4v-0.3h2.1h210.9h0.2v0.2c-0.1,120.9-0.1,214.7-0.1,256.9l0,0l0,0
		l-15.5,12.5L346,358L344.6,359z"/>
	<path class="st6" d="M230.2,64.9h58.2c7.8,0,14.1,6.3,14.1,14.2v15.7l0,0h-87.1l0,0V79.7C215.5,71.5,222.1,64.9,230.2,64.9z"/>
	<polygon class="st6" points="236.8,64.9 233.6,48.8 283.7,48.8 280.9,64.9 	"/>
	<path class="st6" d="M210.6,168h-35.8v-35.8h35.8V168z M175.8,167h33.8v-33.8h-33.8V167z"/>
	<path class="st5" d="M337.3,140.8c0,0.1-25,0.3-55.7,0.3s-55.7-0.1-55.7-0.3s24.9-0.3,55.7-0.3S337.3,140.7,337.3,140.8z"/>
	<path class="st5" d="M337.3,148.3c0,0.1-25,0.3-55.7,0.3s-55.7-0.1-55.7-0.3s24.9-0.3,55.7-0.3S337.3,148.1,337.3,148.3z"/>
	<path class="st5" d="M337.3,155.7c0,0.1-25,0.3-55.7,0.3s-55.7-0.1-55.7-0.3s24.9-0.3,55.7-0.3S337.3,155.6,337.3,155.7z"/>
	<path class="st5" d="M337.3,163.2c0,0.1-25,0.3-55.7,0.3s-55.7-0.1-55.7-0.3s24.9-0.3,55.7-0.3S337.3,163,337.3,163.2z"/>
	<path class="st6" d="M210.6,223.2h-35.8v-35.8h35.8V223.2z M175.8,222.2h33.8v-33.8h-33.8V222.2z"/>
	<polygon class="st6" points="181.9,206.1 186.7,200.9 194.6,207.3 212.8,189.7 217.1,194.8 194.3,217.3 	"/>
	<path class="st5" d="M337.3,196.1c0,0.1-25,0.3-55.7,0.3s-55.7-0.1-55.7-0.3s24.9-0.3,55.7-0.3S337.3,195.9,337.3,196.1z"/>
	<path class="st5" d="M337.3,203.5c0,0.1-25,0.3-55.7,0.3s-55.7-0.1-55.7-0.3s24.9-0.3,55.7-0.3S337.3,203.4,337.3,203.5z"/>
	<path class="st5" d="M337.3,210.9c0,0.1-25,0.3-55.7,0.3s-55.7-0.1-55.7-0.3s24.9-0.3,55.7-0.3S337.3,210.8,337.3,210.9z"/>
	<path class="st5" d="M337.3,218.4c0,0.1-25,0.3-55.7,0.3s-55.7-0.1-55.7-0.3s24.9-0.3,55.7-0.3S337.3,218.3,337.3,218.4z"/>
	<path class="st6" d="M210.6,276.7h-35.8v-35.8h35.8V276.7z M175.8,275.7h33.8v-33.8h-33.8V275.7z"/>
	<polygon class="st6" points="181.9,259.5 186.7,254.4 194.6,260.7 212.8,243.1 217.1,248.2 194.3,270.8 	"/>
	<path class="st5" d="M337.3,249.5c0,0.1-25,0.3-55.7,0.3s-55.7-0.1-55.7-0.3s24.9-0.3,55.7-0.3S337.3,249.4,337.3,249.5z"/>
	<path class="st5" d="M337.3,256.9c0,0.1-25,0.3-55.7,0.3s-55.7-0.1-55.7-0.3s24.9-0.3,55.7-0.3S337.3,256.8,337.3,256.9z"/>
	<path class="st5" d="M337.3,264.4c0,0.1-25,0.3-55.7,0.3s-55.7-0.1-55.7-0.3s24.9-0.3,55.7-0.3S337.3,264.3,337.3,264.4z"/>
	<path class="st5" d="M337.3,271.8c0,0.1-25,0.3-55.7,0.3s-55.7-0.1-55.7-0.3s24.9-0.3,55.7-0.3S337.3,271.7,337.3,271.8z"/>
	<path class="st6" d="M210.6,328.3h-35.8v-35.8h35.8V328.3z M175.8,327.3h33.8v-33.8h-33.8V327.3z"/>
	<polygon class="st6" points="181.9,311.1 186.7,306 194.6,312.3 212.8,294.7 217.1,299.8 194.3,322.4 	"/>
	<path class="st5" d="M337.3,301.1c0,0.1-25,0.3-55.7,0.3s-55.7-0.1-55.7-0.3s24.9-0.3,55.7-0.3S337.3,301,337.3,301.1z"/>
	<path class="st5" d="M337.3,308.6c0,0.1-25,0.3-55.7,0.3s-55.7-0.1-55.7-0.3s24.9-0.3,55.7-0.3S337.3,308.4,337.3,308.6z"/>
	<path class="st5" d="M337.3,316c0,0.1-25,0.3-55.7,0.3s-55.7-0.1-55.7-0.3s24.9-0.3,55.7-0.3S337.3,315.9,337.3,316z"/>
	<path class="st5" d="M337.3,323.4c0,0.1-25,0.3-55.7,0.3s-55.7-0.1-55.7-0.3s24.9-0.3,55.7-0.3S337.3,323.3,337.3,323.4z"/>
	<polygon class="st2" points="327,330.2 303.7,378.5 320.4,378.5 	"/>
	<polygon class="st4" points="320.4,378.8 327,330.5 365.3,342.3 	"/>
	<path class="st5" d="M320.4,378.8l12.9-10.6l31.9-26.1l0.1,0.4l-14.8-4.5l-23.4-7.3l0.3-0.2c-2,14-3.7,26-4.9,34.6
		C321.2,373.4,320.6,377.7,320.4,378.8c0-0.1,0-0.1,0-0.2l0.1-0.7c0.1-0.6,0.2-1.5,0.3-2.6c0.3-2.4,0.8-5.7,1.3-10
		c1.2-8.6,2.8-20.7,4.7-34.9v-0.3l0.3,0.1l23.5,7.2l14.8,4.6l0.5,0.1l-0.4,0.3c-12.9,10.4-24.2,19.5-32.3,26l-9.4,7.6l-2.5,2
		l-0.6,0.5L320.4,378.8z"/>
	<g class="st7">
		<polyline points="280.3,48.8 277.5,64.9 280.9,64.9 283.7,48.8 279.3,48.8 		"/>
	</g>
</g>
</svg>
