<?xml version="1.0" encoding="utf-8"?>
<!-- Generator: Adobe Illustrator 25.4.1, SVG Export Plug-In . SVG Version: 6.00 Build 0)  -->
<svg version="1.1" id="レイヤー_1" xmlns="http://www.w3.org/2000/svg" xmlns:xlink="http://www.w3.org/1999/xlink" x="0px"
	 y="0px" viewBox="0 0 500 500" style="enable-background:new 0 0 500 500;" xml:space="preserve">
<style type="text/css">
	.st0{fill:#FFFFFF;}
	.st1{fill:#263238;}
	.st2{fill:none;stroke:#263238;stroke-linecap:round;stroke-linejoin:round;}
	.st3{fill:#FFFFFF;stroke:#263238;stroke-linecap:round;stroke-linejoin:round;}
	.st4{fill:#BFBFBF;stroke:#263238;stroke-linecap:round;stroke-linejoin:round;}
</style>
<rect x="164.9" y="89.6" class="st0" width="192" height="255.2"/>
<path class="st1" d="M357,345.3H165c-0.3,0-0.5-0.2-0.5-0.5V89.6c0-0.3,0.2-0.5,0.5-0.5h192c0.3,0,0.5,0.2,0.5,0.5v255.2
	C357.5,345.1,357.3,345.3,357,345.3z M165.5,344.3h191V90.1h-191V344.3z"/>
<rect x="186" y="221.1" class="st1" width="146.1" height="6"/>
<rect x="213.1" y="145.5" class="st1" width="119" height="6"/>
<rect x="186" y="183.3" class="st1" width="146.1" height="6"/>
<path class="st1" d="M294.6,296.7c-1.9,2-3.8,4-5.7,6H186v-6H294.6z"/>
<path class="st1" d="M323.3,258.9c-1.3,2-2.6,4-4,6H186v-6H323.3z"/>
<path class="st2" d="M237.7,337.9c0,0-8.5,4.1-32.5,6.4h-39.8"/>
<path class="st1" d="M352.8,199L352.8,199c1.5-2.2,2.4-4.8,2.6-7.4c0.3-3.3,0.5-7.2,0.6-9.6l0.4-13.1V197L352.8,199z"/>
<path class="st3" d="M355.2,195.8c0,1.2-11.2,30.7-32,63c-1.3,2-2.6,4-4,6c-7.5,11.2-15.7,21.8-24.8,31.8c-1.9,2-3.8,4-5.7,6
	c-14.6,14.9-31.5,27.5-50.4,34.8c1.1-0.5,17.6-8.9,21.1-34.8c0.3-1.9,0.5-3.9,0.6-6c0.5-8.8-0.5-19.3-3.6-31.8c-0.5-1.9-1-3.9-1.6-6
	c-4.6-15.6-12.6-34.1-25.2-56l-3.3-7.1l21.3,6c95.1,22.1,107.6-6,107.6-6S355.2,195.8,355.2,195.8z"/>
<path class="st3" d="M273.4,284.8c0.1,1.8,0,3.5-0.1,5.3"/>
<path class="st3" d="M250.5,216.7c13.8,17.9,20.8,48.2,22.6,62.5"/>
<path class="st1" d="M188.1,117.4c-5.6,0.2-10.2-4.2-10.4-9.7c-0.2-5.6,4.2-10.2,9.7-10.4c0.2,0,0.4,0,0.6,0c0.8,0,1.5,0.7,1.5,1.5
	s-0.7,1.5-1.5,1.5c-3.9,0-7.1,3.1-7.1,7c0,3.9,3.1,7.1,7,7.1c3.9,0,7.1-3.1,7.1-7c0,0,0,0,0-0.1c0-0.8,0.7-1.5,1.5-1.5
	s1.5,0.7,1.5,1.5C198.1,112.9,193.6,117.4,188.1,117.4z"/>
<path class="st4" d="M187.9,113.3c-9.2,0-9.7-19.9-9.7-23.8v-0.1c0-4,0.5-24,9.7-24s9.9,21.5,9.9,24l-8,0.2c0-4.6-0.7-9.2-2-13.7
	c-1.2,4.4-1.7,8.9-1.6,13.5v0.1c-0.1,4.6,0.5,9.1,1.7,13.5c0.1-0.3,0.2-0.6,0.3-1l0.6-2.2l5.6,1.6c1.2,0.3,1.8,1.6,1.5,2.7
	c0,0,0,0,0,0l0,0C194.2,110.2,191.5,113.3,187.9,113.3z"/>
<path class="st1" d="M196.7,108.9c-0.8,0-1.5-0.7-1.5-1.5c0-3.9-3.1-7-7-7.1c-0.8,0-1.5-0.7-1.5-1.5s0.7-1.5,1.5-1.5
	c5.5,0,10,4.5,10,10.1C198.2,108.2,197.5,108.9,196.7,108.9z"/>
<path class="st1" d="M235.5,117.4c-5.6-0.2-9.9-4.8-9.7-10.4c0.2-5.3,4.4-9.6,9.7-9.7c0.8,0,1.5,0.7,1.5,1.5s-0.7,1.5-1.5,1.5
	c-3.9,0-7.1,3.2-7.1,7.1s3.2,7.1,7.1,7.1c3.9,0,7.1-3.2,7.1-7.1c0,0,0,0,0,0c0-0.8,0.7-1.5,1.5-1.5s1.5,0.7,1.5,1.5
	C245.6,112.9,241.1,117.4,235.5,117.4z"/>
<path class="st4" d="M235.3,113.3c-9.2,0-9.7-19.9-9.7-23.8v-0.1c0-4,0.5-24,9.7-24s9.9,21.5,9.9,24l-8,0.2c0-4.6-0.7-9.2-2-13.7
	c-1.2,4.4-1.7,8.9-1.6,13.5v0.1c-0.1,4.6,0.5,9.2,1.7,13.6c0.1-0.3,0.2-0.6,0.3-1l0.6-2.2l5.6,1.6c1.2,0.3,1.8,1.6,1.5,2.7
	c0,0,0,0,0,0l0,0C241.6,110.2,238.9,113.3,235.3,113.3z"/>
<path class="st1" d="M244.1,108.9c-0.8,0-1.5-0.7-1.5-1.5c0-3.9-3.2-7.1-7.1-7.1c-0.8,0-1.5-0.7-1.5-1.5s0.7-1.5,1.5-1.5
	c5.6,0,10.1,4.5,10.1,10.1C245.6,108.2,244.9,108.9,244.1,108.9z"/>
<path class="st1" d="M282.9,117.4c-5.6-0.2-9.9-4.8-9.7-10.4c0.2-5.3,4.4-9.6,9.7-9.7c0.8,0,1.5,0.7,1.5,1.5s-0.7,1.5-1.5,1.5
	c-3.9,0-7.1,3.2-7.1,7.1s3.2,7.1,7.1,7.1c3.9,0,7.1-3.2,7.1-7.1c0,0,0,0,0,0c0-0.8,0.7-1.5,1.5-1.5s1.5,0.7,1.5,1.5
	C293,112.9,288.5,117.4,282.9,117.4z"/>
<path class="st4" d="M282.7,113.3c-9.2,0-9.7-19.9-9.7-23.8v-0.1c0-4,0.5-24,9.7-24s9.9,21.5,9.9,24l-8,0.2c0-4.6-0.7-9.2-2-13.7
	c-1.2,4.4-1.7,9-1.6,13.5v0.1c-0.1,4.6,0.5,9.1,1.7,13.5c0.1-0.3,0.2-0.6,0.3-1l0.6-2.2l5.6,1.6c1.2,0.3,1.8,1.6,1.5,2.7
	c0,0,0,0,0,0l0,0C289,110.2,286.4,113.3,282.7,113.3z"/>
<path class="st1" d="M291.5,108.9c-0.8,0-1.5-0.7-1.5-1.5c0-3.9-3.2-7.1-7.1-7.1c-0.8,0-1.5-0.7-1.5-1.5s0.7-1.5,1.5-1.5
	c5.6,0,10.1,4.5,10.1,10.1C293,108.2,292.3,108.9,291.5,108.9z"/>
<path class="st1" d="M330.3,117.4c-5.6,0.2-10.2-4.2-10.4-9.7c-0.2-5.6,4.2-10.2,9.7-10.4c0.2,0,0.4,0,0.6,0c0.8,0,1.5,0.7,1.5,1.5
	s-0.7,1.5-1.5,1.5c-3.9,0-7.1,3.2-7.1,7s3.2,7.1,7,7.1c3.9,0,7.1-3.2,7.1-7c0,0,0,0,0,0c0-0.8,0.7-1.5,1.5-1.5s1.5,0.7,1.5,1.5
	C340.4,112.9,335.9,117.4,330.3,117.4z"/>
<path class="st4" d="M330.1,113.3c-9.2,0-9.7-19.9-9.7-23.8v-0.1c0-4,0.5-24,9.7-24s9.9,21.6,9.9,24l-8,0.2c0-4.6-0.7-9.2-2-13.7
	c-1.2,4.4-1.7,8.9-1.6,13.5v0.1c-0.1,4.6,0.5,9.1,1.7,13.6c0.1-0.3,0.2-0.6,0.3-1l0.6-2.2l5.6,1.6c1.2,0.3,1.8,1.6,1.5,2.7
	c0,0,0,0,0,0l0,0C336.4,110.2,333.8,113.3,330.1,113.3z"/>
<path class="st1" d="M338.9,108.9c-0.8,0-1.5-0.7-1.5-1.5c0-3.9-3.2-7.1-7-7.1c-0.8,0-1.5-0.7-1.5-1.5s0.7-1.5,1.5-1.5
	c5.5,0,10,4.5,10,10.1C340.4,108.2,339.7,108.9,338.9,108.9z"/>
</svg>
