<?xml version="1.0" encoding="utf-8"?>
<!-- Generator: Adobe Illustrator 25.4.1, SVG Export Plug-In . SVG Version: 6.00 Build 0)  -->
<svg version="1.1" xmlns="http://www.w3.org/2000/svg" xmlns:xlink="http://www.w3.org/1999/xlink" x="0px" y="0px"
	 viewBox="0 0 500 500" style="enable-background:new 0 0 500 500;" xml:space="preserve">
<style type="text/css">
	.st0{fill:none;}
	.st1{fill:#37474F;}
	.st2{fill:#455A64;}
	.st3{fill:#263238;}
	.st4{fill:#90CAF9;}
	.st5{fill:#FFFFFF;}
</style>
<g id="レイヤー_2">
	<rect x="185.3" y="312.5" class="st0" width="81" height="81"/>
</g>
<g id="レイヤー_1">
	<path class="st1" d="M185.3,353c0-22.4,18.1-40.5,40.5-40.5l0,0v81C203.5,393.5,185.3,375.4,185.3,353L185.3,353z"/>
	<path class="st2" d="M191,353c0-19.2,15.6-34.8,34.8-34.8c9,0,17.6,3.5,24.1,9.7L225.8,353v34.8C206.6,387.8,191,372.2,191,353
		L191,353z"/>
	<path class="st3" d="M196.6,353c0-16.1,13.1-29.2,29.2-29.2S255,336.9,255,353h-29.2v29.2C209.7,382.2,196.6,369.2,196.6,353
		L196.6,353z"/>
	<path class="st4" d="M202.7,353c0-12.8,10.4-23.1,23.2-23.1s23.1,10.4,23.1,23.2c0,6-2.4,11.8-6.6,16.2L225.8,353v23.1
		C213.1,376.2,202.7,365.8,202.7,353L202.7,353z"/>
	<g>
		<path class="st3" d="M238.2,383.9c0,2.3-2,4.3-4.3,4.3s-4.3-2-4.3-4.3c0-1.5,0.8-2.8,2-3.5c-0.3-0.5-0.5-1-0.5-1.8
			c0.3-1.5,1.8-2.8,3.3-2.5c1.3,0.3,2.5,1.3,2.5,2.5c0,0.8-0.3,1.3-0.5,1.8C237.4,381.1,238.2,382.7,238.2,383.9z M236.2,383.9
			c0-1.3-1-2.3-2.3-2.3c-1.3,0-2.3,1-2.3,2.3s1,2.3,2.3,2.3C235.2,386.4,236.2,385.2,236.2,383.9L236.2,383.9z M232.9,378.6
			c0,0.5,0.5,1,1,1l0,0c0.5,0,1-0.8,0.8-1.3c0-0.5-0.5-0.8-0.8-0.8C233.4,377.6,232.9,378.1,232.9,378.6L232.9,378.6z"/>
		<path class="st3" d="M247.8,380.6c0.8,0.8,1.3,2,1.3,3.3c0,2.5-2,4.5-4.5,4.5l0,0c-1.3,0-2.3-0.5-3-1.3c-0.5-0.5-0.5-1,0-1.5
			s1-0.5,1.5,0c0.5,0.5,1,0.8,1.8,0.8c1.3,0,2.3-1,2.5-2.5c0-0.8-0.3-1.3-0.8-1.8c-0.5-0.5-1-0.8-1.8-0.8c-0.8,0-1.3,0.3-1.8,0.8
			c-0.5,0.5-1,0.5-1.5,0l0,0l-0.3-0.3l0,0l0,0l0,0l0,0v-0.3l0.5-4.8c0-0.3,0.3-0.8,0.5-0.8l0,0h0.5h5.3c0.5,0,1,0.5,1,1
			c0,0.5-0.5,1-1,1h-4.5l-0.3,1.8c0.5,0,0.8,0,1.3,0C245.8,379.6,246.8,379.9,247.8,380.6z"/>
		<path class="st3" d="M251.8,378.9L251.8,378.9c-0.3-1.5,1-3,2.5-3.3c1.5-0.3,3,1,3.3,2.5c0,0.3,0,0.5,0,0.8l0,0
			c0,1.8-1.3,3-2.8,3.3c0,0,0,0-0.3,0C253.1,381.9,251.8,380.6,251.8,378.9L251.8,378.9z M256.1,378.9L256.1,378.9
			c0-1-0.5-1.8-1.3-1.8c-0.8,0-1.3,0.8-1.3,1.8l0,0c0,1,0.5,1.8,1.5,1.8C255.6,380.6,256.1,379.6,256.1,378.9z M253.9,387.2
			l8.3-11.4c0-0.3,0.3-0.3,0.5-0.3c0.5,0,0.8,0.3,0.8,0.8c0,0.3,0,0.3,0,0.5l-8.3,11.4c-0.3,0.3-0.5,0.3-0.8,0.3
			c-0.3,0-0.8-0.3-0.8-0.8l0,0C253.9,387.5,253.9,387.2,253.9,387.2z M259.4,385.2L259.4,385.2c0-1.8,1.3-3,2.8-3.3c0,0,0,0,0.3,0
			c1.8,0,3,1.3,3,3c0,0,0,0,0,0.3l0,0c0,1.8-1.3,3-2.8,3.3c0,0,0,0-0.3,0C260.7,388.5,259.4,386.9,259.4,385.2
			C259.4,385.4,259.4,385.2,259.4,385.2L259.4,385.2z M263.7,385.2L263.7,385.2c0-1-0.5-1.8-1.3-1.8c-0.8,0-1.3,0.8-1.3,1.8l0,0
			c0,1,0.5,1.8,1.5,1.8C263.2,386.9,263.7,386.2,263.7,385.2L263.7,385.2z"/>
	</g>
	<circle class="st5" cx="225.8" cy="353" r="17.8"/>
</g>
</svg>
