<?xml version="1.0" encoding="utf-8"?>
<!-- Generator: Adobe Illustrator 25.4.1, SVG Export Plug-In . SVG Version: 6.00 Build 0)  -->
<svg version="1.1" id="レイヤー_1" xmlns="http://www.w3.org/2000/svg" xmlns:xlink="http://www.w3.org/1999/xlink" x="0px"
	 y="0px" viewBox="0 0 750 500" style="enable-background:new 0 0 750 500;" xml:space="preserve">
<style type="text/css">
	.st0{fill:#263238;}
</style>
<path class="st0" d="M352,168.7c-21.6,0-39.1,17.5-39.1,39c0,21.6,17.5,39.1,39,39.1c21.6,0,39.1-17.5,39.1-39l0,0
	C391,186.3,373.6,168.8,352,168.7z M352,238.6c-17,0-30.8-13.8-30.8-30.7s13.8-30.8,30.7-30.8s30.8,13.8,30.8,30.7l0,0
	C382.7,224.8,369,238.6,352,238.6z M352,168.7c-21.6,0-39.1,17.5-39.1,39c0,21.6,17.5,39.1,39,39.1c21.6,0,39.1-17.5,39.1-39l0,0
	C391,186.3,373.6,168.8,352,168.7z M352,238.6c-17,0-30.8-13.8-30.8-30.7s13.8-30.8,30.7-30.8s30.8,13.8,30.8,30.7l0,0
	C382.7,224.8,369,238.6,352,238.6z M352,141.9c-36.4,0-65.9,29.5-65.9,65.9s29.5,65.9,65.8,65.9s65.9-29.5,65.9-65.8l0,0
	C417.9,171.4,388.4,142,352,141.9z M352,250.6c-23.7,0-42.8-19.1-42.9-42.8c0-23.7,19.1-42.8,42.8-42.9c23.7,0,42.8,19.1,42.9,42.8
	l0,0C394.8,231.4,375.6,250.6,352,250.6z M352,168.7c-21.6,0-39.1,17.5-39.1,39c0,21.6,17.5,39.1,39,39.1c21.6,0,39.1-17.5,39.1-39
	l0,0C391,186.3,373.6,168.8,352,168.7L352,168.7z M352,238.6c-17,0-30.8-13.8-30.8-30.7s13.8-30.8,30.7-30.8s30.8,13.8,30.8,30.7
	l0,0C382.7,224.8,369,238.6,352,238.6L352,238.6z"/>
<polygon class="st0" points="359.7,143.1 344.7,143.1 346.2,128.1 358.2,128.1 "/>
<polygon class="st0" points="326.4,147.9 313.3,155.5 307.1,141.7 317.5,135.7 "/>
<polygon class="st0" points="299.9,168.8 292.3,181.8 280,173 286.1,162.6 "/>
<polygon class="st0" points="287.3,200.1 287.3,215.2 272.3,213.7 272.3,201.6 "/>
<polygon class="st0" points="292.1,233.5 299.7,246.5 285.9,252.7 279.8,242.3 "/>
<polygon class="st0" points="313,260 326,267.5 317.2,279.8 306.7,273.8 "/>
<polygon class="st0" points="344.3,272.5 359.4,272.5 357.9,287.6 345.8,287.6 "/>
<polygon class="st0" points="377.6,267.7 390.7,260.2 396.9,273.9 386.5,280 "/>
<polygon class="st0" points="404.1,246.9 411.7,233.8 424,242.6 417.9,253.1 "/>
<polygon class="st0" points="416.7,215.6 416.7,200.5 431.7,202 431.7,214.1 "/>
<polygon class="st0" points="411.9,182.2 404.3,169.1 418.1,162.9 424.2,173.4 "/>
<polygon class="st0" points="391,155.7 378,148.1 386.8,135.8 397.3,141.9 "/>
</svg>
