<?xml version="1.0" encoding="utf-8"?>
<!-- Generator: Adobe Illustrator 25.4.1, SVG Export Plug-In . SVG Version: 6.00 Build 0)  -->
<svg version="1.1" id="レイヤー_1" xmlns="http://www.w3.org/2000/svg" xmlns:xlink="http://www.w3.org/1999/xlink" x="0px"
	 y="0px" viewBox="0 0 500 500" style="enable-background:new 0 0 500 500;" xml:space="preserve">
<style type="text/css">
	.st0{fill:none;}
	.st1{fill:#FFA8A7;}
	.st2{fill:#FFC4C3;}
	.st3{fill:#37474F;}
	.st4{fill:#F0F0F0;}
	.st5{fill:#FAFAFA;}
	.st6{fill:#90CAF9;}
	.st7{fill:#6F9ABD;}
	.st8{opacity:0.4;fill:#FFFFFF;enable-background:new    ;}
	.st9{fill:#263238;}
</style>
<rect x="197.3" y="160.7" class="st0" width="124.2" height="124.2"/>
<path class="st1" d="M237.9,267.9l-20.8,14l-4.1,2.8l0,0c-0.6,0.4-1.4,0.2-1.8-0.4c-0.2-0.3-0.3-0.7-0.2-1.1l0,0l1.8-5.3l7.9-23.4
	l6.9,5.4L237.9,267.9z"/>
<path class="st2" d="M227.6,259.9L214,280.6l-2.6,3.9c-0.3-0.3-0.5-0.8-0.3-1.3l0,0l1.8-5.3l7.9-23.4L227.6,259.9z"/>
<path class="st3" d="M217.2,281.9l-4.1,2.8l0,0c-0.6,0.4-1.4,0.2-1.8-0.4c-0.2-0.3-0.3-0.7-0.2-1.1l0,0l1.8-5.3
	c0.1,1,0.5,1.9,1.1,2.7C214.8,281.5,216,281.9,217.2,281.9z"/>
<path class="st4" d="M267.8,192.4l-3.9,5.1c-1.2,1.4,1.3,4.8,4.7,7.9c4.5,4.1,10.7,7.8,12.3,5.9l3.9-5.2c-1.6,1.9-7.9-1.7-12.4-5.9
	c-3.2-3-5.6-6.2-4.8-7.7l0,0C267.7,192.5,267.7,192.4,267.8,192.4z"/>
<path class="st5" d="M272.4,200.3c-3.2-3-5.6-6.2-4.8-7.7l0,0c0-0.1,0.1-0.1,0.1-0.2l-3.9,5.1c-1.2,1.4,1.3,4.8,4.7,7.9L272.4,200.3
	L272.4,200.3z"/>
<path class="st6" d="M266.8,193.6c-2.7,3.4,14.2,17.1,17,13.8l3.9-5.1c-2.7,3.4-19.7-10.4-16.9-13.8L266.8,193.6z"/>
<path class="st4" d="M274.4,183.7l-3.9,5.1c-2.7,3.3,13.5,16.8,16.7,14.1c0.1,0,0.1-0.1,0.2-0.2l3.9-5.1
	C288.5,200.8,271.6,187,274.4,183.7z"/>
<path class="st7" d="M290.8,162.2l-16.3,21.5c-1.2,1.4,1.2,4.8,4.6,7.9c4.5,4.1,10.7,7.9,12.3,6l0,0l15.7-20.6
	c4.1-4.5-3.5-13.5-10-15.7C294.6,160.4,292.3,160.5,290.8,162.2z"/>
<path class="st6" d="M290.8,162.2l-16.3,21.5c-1.2,1.4,1.2,4.8,4.6,7.9l16.7-20.9c0,0-4.4-4.4-4-6.9s2.6-3,5.3-2.5
	C294.6,160.4,292.3,160.5,290.8,162.2z"/>
<path class="st8" d="M270.7,188.5l-3.9,5.1c-1.2,1.4,1.3,4.8,4.6,7.9l3.9-5.1C272,193.3,269.5,190,270.7,188.5z"/>
<path class="st5" d="M274.4,183.7l-3.9,5.1c-1.2,1.4,1.2,4.8,4.6,7.9l3.8-5.1C275.6,188.4,273.2,185.1,274.4,183.7z"/>
<g id="レイヤー_2_00000060751050155821048350000011580889534016559790_">
	<path class="st9" d="M274.4,183.7l-1.8,2.3l-2.1,2.8l-49.8,65.8c0.4,3.5,2.1,6.7,4.7,9c3.9,3.6,9.2,5.5,12.5,4.4l0,0l49.3-65.1
		l4-5.3C288.5,200.8,271.6,187,274.4,183.7z"/>
	<path class="st3" d="M272.6,185.9l-2.1,2.8l-49.8,65.8c0.4,3.5,2.1,6.7,4.7,9l51.7-69.5L272.6,185.9z"/>
</g>
</svg>
