<?xml version="1.0" encoding="utf-8"?>
<!-- Generator: Adobe Illustrator 25.4.1, SVG Export Plug-In . SVG Version: 6.00 Build 0)  -->
<svg version="1.1" id="レイヤー_1" xmlns="http://www.w3.org/2000/svg" xmlns:xlink="http://www.w3.org/1999/xlink" x="0px"
	 y="0px" viewBox="0 0 750 500" style="enable-background:new 0 0 750 500;" xml:space="preserve">
<style type="text/css">
	.st0{fill:none;}
	.st1{fill:#455A64;}
	.st2{fill:#263238;}
	.st3{fill:#90CAF9;}
	.st4{opacity:0.1;enable-background:new    ;}
</style>
<rect x="272.1" y="146" class="st0" width="204.6" height="204.6"/>
<g id="freepik--Padlock--inject-29">
	<path class="st1" d="M425.5,199.8v54.5h-15.4v-54.5c0-20.7-15.7-37.6-35.1-37.6s-35.1,16.8-35.1,37.6v54.5h-15.4v-54.5
		c0-29.7,22.6-53.8,50.5-53.8S425.5,170.1,425.5,199.8z"/>
	<polygon class="st2" points="324.5,213.9 339.9,214.5 339.9,254.2 324.5,254.2 	"/>
	<polygon class="st2" points="425.5,218 425.5,254.2 410.1,254.2 410.1,217.4 	"/>
	<rect x="304.8" y="223.2" class="st3" width="140.4" height="127.4"/>
	<rect x="375" y="223.2" class="st4" width="70.2" height="127.4"/>
	<path class="st2" d="M380.9,291.6l5.9,27.9h-24.9l5.9-27.9c-5.8-3.6-7.6-11.3-4-17.2c3.6-5.8,11.3-7.6,17.2-4
		c5.8,3.6,7.6,11.3,4,17.2C383.9,289.2,382.6,290.6,380.9,291.6z"/>
</g>
</svg>
